<?xml version="1.0" encoding="UTF-8"?>
<svg version="1.1" xmlns="http://www.w3.org/2000/svg" width="1080" height="257">
<path d="M0 0 C4.03522656 2.08354836 8.23176594 3.81034565 12.40527344 5.59667969 C15.66951184 7.00481401 18.8873373 8.45886267 22.05859375 10.06640625 C27.86549687 13.00889223 33.79158319 15.69776818 39.703125 18.421875 C40.88197266 18.96779297 42.06082031 19.51371094 43.27539062 20.07617188 C44.96631836 20.85637695 44.96631836 20.85637695 46.69140625 21.65234375 C47.71403564 22.12438232 48.73666504 22.5964209 49.7902832 23.08276367 C52.42286113 24.29790597 52.42286113 24.29790597 55.390625 25.234375 C55.390625 25.894375 55.390625 26.554375 55.390625 27.234375 C56.26460937 27.34394531 57.13859375 27.45351563 58.0390625 27.56640625 C61.46933877 28.25006271 63.92907067 29.3020717 67.015625 30.921875 C70.21107124 32.58923736 73.39118962 34.23463741 76.66015625 35.75390625 C87.18062646 40.67037753 87.18062646 40.67037753 90.390625 46.234375 C92.79764862 52.9975243 92.8269339 59.46024783 90.390625 66.234375 C88.93359375 68.5234375 88.93359375 68.5234375 87.390625 70.234375 C86.730625 70.234375 86.070625 70.234375 85.390625 70.234375 C85.390625 70.894375 85.390625 71.554375 85.390625 72.234375 C82.6865445 73.55630299 79.97793232 74.86702321 77.265625 76.171875 C76.50507813 76.54505859 75.74453125 76.91824219 74.9609375 77.30273438 C70.76011791 79.31260926 67.08641736 80.76179526 62.390625 81.234375 C62.390625 81.894375 62.390625 82.554375 62.390625 83.234375 C42.98898566 92.234375 42.98898566 92.234375 39.390625 92.234375 C39.390625 92.894375 39.390625 93.554375 39.390625 94.234375 C38.83117187 94.44191406 38.27171875 94.64945312 37.6953125 94.86328125 C32.44309638 96.88141574 27.39970093 99.17536095 22.390625 101.734375 C17.55141895 104.20615275 12.68977263 106.40004623 7.61328125 108.33984375 C5.48324477 109.19709921 3.48640989 110.17049462 1.453125 111.234375 C-12.33461246 118.31002932 -27.55290998 120.70584196 -42.609375 116.234375 C-47.25733293 114.49539764 -51.62768414 112.22796421 -56.046875 109.984375 C-60.70462053 107.62300634 -65.45302708 105.51642623 -70.234375 103.421875 C-76.9898457 100.4583303 -83.60872907 97.29633211 -90.18847656 93.96264648 C-98.16196262 89.92654762 -106.29394186 86.49805231 -114.609375 83.234375 C-114.609375 82.574375 -114.609375 81.914375 -114.609375 81.234375 C-115.455 81.13125 -116.300625 81.028125 -117.171875 80.921875 C-121.02380201 80.1514896 -124.05012531 78.87162986 -127.609375 77.234375 C-127.609375 76.574375 -127.609375 75.914375 -127.609375 75.234375 C-128.310625 75.151875 -129.011875 75.069375 -129.734375 74.984375 C-135.5236311 73.47413428 -139.20643263 70.0237013 -142.609375 65.234375 C-145.11807881 60.21696738 -144.38884461 52.29431989 -143.03125 46.96484375 C-139.27501927 39.40116097 -130.4877679 35.94018648 -123.02734375 33.17578125 C-120.70220105 32.27051568 -118.56085819 31.21680607 -116.359375 30.046875 C-113.14395322 28.38034542 -110.24394919 27.59783242 -106.609375 27.234375 C-106.609375 26.574375 -106.609375 25.914375 -106.609375 25.234375 C-105.64451172 24.79738281 -105.64451172 24.79738281 -104.66015625 24.3515625 C-98.35798545 21.49266048 -92.07046227 18.60344241 -85.7890625 15.69921875 C-82.9422007 14.38770379 -80.09002104 13.08911838 -77.234375 11.796875 C-73.5322153 10.11798863 -69.84134966 8.41655181 -66.15844727 6.69580078 C-64.87569669 6.09650023 -63.59232941 5.4985179 -62.30834961 4.90185547 C-59.22880593 3.46909102 -56.16435972 2.01659098 -53.11328125 0.5234375 C-36.44362123 -7.52669278 -16.74292725 -9.1452964 0 0 Z " fill="#386BE8" transform="translate(151.609375,17.765625)"/>
<path d="M0 0 C1.1461744 0.95792538 2.29207775 1.91617536 3.4375 2.875 C4.4275 3.37 4.4275 3.37 5.4375 3.875 C5.7675 0.905 6.0975 -2.065 6.4375 -5.125 C15.0175 -5.125 23.5975 -5.125 32.4375 -5.125 C32.50558248 5.71582641 32.56049186 16.55650819 32.59293652 27.39750099 C32.60851715 32.43272543 32.62961465 37.46779458 32.66381836 42.50292969 C32.69668533 47.37238441 32.71441 52.24169083 32.72213173 57.11124802 C32.7276266 58.95856431 32.738355 60.80587353 32.75469017 62.65312576 C32.89469907 79.15940013 32.21009119 96.4297256 20.265625 109.21875 C6.57094796 121.6258933 -10.31437156 122.93305944 -27.94726562 122.06396484 C-41.39170453 121.09253134 -53.39538743 117.48610466 -64.5625 109.875 C-64.0087522 104.77045207 -61.53657204 100.90924443 -59 96.5625 C-58.57525391 95.82193359 -58.15050781 95.08136719 -57.71289062 94.31835938 C-56.66898347 92.50031882 -55.61657808 90.68716252 -54.5625 88.875 C-54.01078125 89.1534375 -53.4590625 89.431875 -52.890625 89.71875 C-38.32290395 96.95372555 -24.83844896 101.15324944 -8.5625 96.875 C-4.33818212 95.3554612 -1.5180268 93.23441849 0.8125 89.375 C3.23119192 84.16550971 3.54866769 80.65572007 3.4375 74.875 C2.8084375 75.28492188 2.179375 75.69484375 1.53125 76.1171875 C0.6753125 76.65601563 -0.180625 77.19484375 -1.0625 77.75 C-1.8978125 78.28367187 -2.733125 78.81734375 -3.59375 79.3671875 C-14.22037486 84.76439434 -28.363247 84.42978908 -39.625 81.25 C-51.75036787 76.92278801 -60.75397559 68.62375184 -66.6328125 57.23046875 C-71.18455639 45.69810924 -71.3407495 32.05506492 -66.81640625 20.515625 C-60.89454676 8.04466856 -51.45856137 -0.19830618 -38.4921875 -4.87109375 C-26.28105373 -8.23728082 -10.34074571 -7.69543867 0 0 Z M-37.5625 24.875 C-41.61868201 30.51838367 -42.47904187 36.04564536 -41.5625 42.875 C-39.66745991 48.85933713 -36.89559024 53.92818599 -31.40234375 57.13671875 C-24.43968283 60.28150221 -17.46052415 61.29504731 -10.04296875 59.14453125 C-4.17177925 56.75905625 -0.4745617 53.51232649 3.25 48.375 C5.3050243 42.31808627 5.79539559 35.50766086 3.5234375 29.4296875 C0.28482484 23.93449312 -3.85483824 19.96847879 -9.8125 17.5625 C-20.61554514 15.58194172 -29.63224894 16.76451596 -37.5625 24.875 Z " fill="#000000" transform="translate(582.5625,94.125)"/>
<path d="M0 0 C11.07723716 9.20912096 20.04518221 22.03785112 21.77734375 36.59375 C22.75680894 49.14830722 23.20518973 61.97653936 17.77734375 73.59375 C17.31457031 74.59019531 16.85179687 75.58664063 16.375 76.61328125 C8.58368486 91.45297439 -4.23295742 101.91078821 -20.16015625 106.96875 C-39.19805369 112.39466873 -60.31517789 111.28716254 -78.09765625 102.40625 C-87.98985179 96.65212636 -95.29325416 89.34465933 -101.22265625 79.59375 C-101.93228516 78.45873047 -101.93228516 78.45873047 -102.65625 77.30078125 C-110.53483574 63.34376141 -110.69124706 45.8591627 -107.22265625 30.59375 C-102.35540144 15.28851515 -91.93537547 1.66277751 -77.78515625 -6.1640625 C-53.48488632 -17.94376652 -21.7950658 -16.89767253 0 0 Z M-69.140625 20.2265625 C-70.68949569 21.93868177 -71.96535809 23.65822476 -73.22265625 25.59375 C-73.68285156 26.2846875 -74.14304687 26.975625 -74.6171875 27.6875 C-80.47956629 37.28355519 -81.41815022 47.67023976 -79.09765625 58.53125 C-76.57991101 67.82934172 -71.26433783 75.22798326 -63.22265625 80.59375 C-52.89709267 85.82812661 -42.12730538 86.81705994 -31.046875 83.6015625 C-19.87564465 79.61514835 -14.31683895 73.43454616 -9.203125 62.92578125 C-5.45258243 54.00516804 -5.80034487 41.97750349 -9.28515625 33.03125 C-11.82379708 27.78856114 -15.03390601 23.61651247 -19.22265625 19.59375 C-19.98578125 18.85125 -20.74890625 18.10875 -21.53515625 17.34375 C-36.36268748 7.68861338 -55.49600113 8.61056906 -69.140625 20.2265625 Z " fill="#000000" transform="translate(408.22265625,73.40625)"/>
<path d="M0 0 C0.70600342 0.31469238 1.41200684 0.62938477 2.1394043 0.95361328 C6.86731543 3.07492291 11.50830351 5.33389002 16.125 7.6875 C17.115 8.0175 18.105 8.3475 19.125 8.6875 C19.125 9.3475 19.125 10.0075 19.125 10.6875 C20.44757812 10.85572266 20.44757812 10.85572266 21.796875 11.02734375 C25.12506201 11.6875123 27.40039018 12.65397397 30.375 14.25 C36.24353412 17.2897116 42.21379446 19.99860767 48.26953125 22.64355469 C51.923298 24.24514288 55.54873878 25.87165389 59.12109375 27.6484375 C77.18265052 36.6129584 96.70985924 38.55363047 116.125 32.6875 C118.14049133 31.77010395 120.09819847 30.77543465 122.06030273 29.74902344 C125.50644533 27.97725709 129.07253561 26.48146927 132.625 24.9375 C139.42292129 21.95390896 146.08567871 18.77153129 152.70581055 15.41381836 C157.45197235 13.00929601 162.24432634 10.79976208 167.125 8.6875 C174.16854413 5.51953811 181.17828258 2.27939914 188.1796875 -0.98046875 C196.78196033 -4.87088657 196.78196033 -4.87088657 202.125 -3.3125 C206.39854147 -0.6291135 208.19361566 2.07515724 210.125 6.6875 C210.5234375 10.125 210.5234375 10.125 210.5 13.6875 C210.50773438 14.863125 210.51546875 16.03875 210.5234375 17.25 C209.9418559 22.26756674 208.48071314 25.41566878 204.7890625 28.87890625 C202.09534036 30.7076355 199.42699285 32.20095092 196.5 33.625 C194.91251953 34.3984375 194.91251953 34.3984375 193.29296875 35.1875 C189.57582517 36.94752853 185.84162059 38.66285546 182.08984375 40.34765625 C178.67210609 41.89216747 175.27230956 43.4737389 171.875 45.0625 C171.24537354 45.35672852 170.61574707 45.65095703 169.96704102 45.95410156 C167.35606399 47.17478374 164.74565487 48.39667277 162.13574219 49.61962891 C157.80240245 51.65001684 153.46529023 53.6720089 149.125 55.6875 C147.72121094 56.34492188 147.72121094 56.34492188 146.2890625 57.015625 C145.49242187 57.38171875 144.69578125 57.7478125 143.875 58.125 C143.20984375 58.43308594 142.5446875 58.74117187 141.859375 59.05859375 C140.125 59.6875 140.125 59.6875 137.125 59.6875 C137.125 60.3475 137.125 61.0075 137.125 61.6875 C136.4959375 61.92984375 135.866875 62.1721875 135.21875 62.421875 C130.39554972 64.31047752 125.72992197 66.32700767 121.1171875 68.6796875 C106.7939019 75.92558492 91.84860137 78.29104115 76.125 73.8046875 C71.37653134 72.03637756 66.92967248 69.74349039 62.453125 67.390625 C58.816767 65.52976574 55.13643992 64.03221403 51.328125 62.5703125 C49.31628937 61.76415141 47.4235827 60.87024496 45.5 59.875 C41.45607771 57.78701563 37.30002446 55.99332785 33.125 54.1875 C27.70064981 51.84049114 22.39270402 49.37104733 17.125 46.6875 C15.46802621 45.99709426 13.80576231 45.31778587 12.125 44.6875 C12.125 44.0275 12.125 43.3675 12.125 42.6875 C11.48046875 42.59984375 10.8359375 42.5121875 10.171875 42.421875 C6.00342373 41.41717136 2.2723899 39.70278836 -1.625 37.9375 C-2.42760254 37.57551514 -3.23020508 37.21353027 -4.05712891 36.84057617 C-20.21393019 29.48419387 -20.21393019 29.48419387 -23.875 23.6875 C-25.95780399 17.43908804 -26.43250661 9.81107094 -23.453125 3.8359375 C-16.08004725 -5.83728843 -10.30922956 -4.68678973 0 0 Z " fill="#386AE8" transform="translate(32.875,172.3125)"/>
<path d="M0 0 C2.578125 1.03125 2.578125 1.03125 5.25 2.5 C10.33699825 5.1820065 15.47713451 7.58093558 20.75 9.875 C27.41630536 12.79339943 33.95973683 15.88859281 40.43457031 19.21044922 C44.44512876 21.26093603 48.50382442 23.14487642 52.62817383 24.95556641 C55.08467845 26.03728815 57.52942637 27.1425488 59.97265625 28.25390625 C60.80990234 28.63353516 61.64714844 29.01316406 62.50976562 29.40429688 C64.21629862 30.1785693 65.92202518 30.95462154 67.62695312 31.73242188 C86.00598752 40.05045826 104.3659516 43.08154399 124 37 C128.45007671 35.21681323 132.71295029 33.14092664 137 31 C139.20482112 29.97160287 141.41316111 28.95071545 143.625 27.9375 C145.24535156 27.18919922 145.24535156 27.18919922 146.8984375 26.42578125 C149.67763248 25.14819162 152.46237837 23.88406173 155.25 22.625 C159.87820019 20.52857936 164.47096244 18.3625212 169.0625 16.1875 C175.91378482 12.94365788 182.81377554 9.82496204 189.76000977 6.78979492 C193.99760082 4.92904374 198.11795366 2.94672011 202.19262695 0.74926758 C205.44474603 -0.59893632 207.72552371 -0.03085365 211 1 C215.19472408 3.51683445 217.55746885 6.32169944 219 11 C219.30078125 14.33984375 219.30078125 14.33984375 219.3125 17.9375 C219.32925781 19.12214844 219.34601563 20.30679688 219.36328125 21.52734375 C218.96852257 25.30089716 217.88752892 27.73791176 216 31 C215.34 31 214.68 31 214 31 C213.67 31.99 213.34 32.98 213 34 C210.49198312 35.38497931 208.04743953 36.58926897 205.4375 37.75 C204.67896729 38.09708008 203.92043457 38.44416016 203.13891602 38.80175781 C197.25731537 41.4791438 191.33301995 44.06198812 185.40356445 46.63134766 C179.98358741 48.98478557 174.73397521 51.55133704 169.515625 54.31640625 C165.00491448 56.65850594 161.15849752 58.5927502 156 59 C156 59.66 156 60.32 156 61 C155.3709375 61.24234375 154.741875 61.4846875 154.09375 61.734375 C149.31602377 63.60517142 144.68708262 65.58816821 140.125 67.93359375 C136.70600177 69.64937779 133.21760331 71.2067375 129.7265625 72.76953125 C128.02429213 73.53774782 126.329881 74.32392795 124.6484375 75.13671875 C111.43780838 81.41526863 96.78331765 81.83355501 83 77 C78.57423795 75.1199013 74.25406936 73.07153908 69.94091797 70.94824219 C66.73106334 69.38005661 63.48986887 67.87991806 60.25 66.375 C59.6211792 66.08141602 58.9923584 65.78783203 58.34448242 65.48535156 C53.86224735 63.39336732 49.36275838 61.34195578 44.85546875 59.3046875 C42.13031832 58.05954353 39.41723713 56.79035408 36.70605469 55.51513672 C30.09242778 52.40615223 23.43876209 49.41109678 16.7355957 46.50024414 C11.12751928 44.0642164 5.55538407 41.55406429 0 39 C0 38.34 0 37.68 0 37 C-0.825 36.979375 -1.65 36.95875 -2.5 36.9375 C-7.89108414 35.49345961 -12.09407629 31.834293 -15.2109375 27.19921875 C-17.14094054 21.82005187 -17.17489277 14.27032007 -15.2421875 8.890625 C-14.25 7.375 -14.25 7.375 -12 5 C-11.29875 4.236875 -10.5975 3.47375 -9.875 2.6875 C-6.59920363 -0.26071674 -4.34685354 -0.29685829 0 0 Z " fill="#386AE7" transform="translate(24,112)"/>
<path d="M0 0 C9.24 0 18.48 0 28 0 C34.04745942 14.03874509 40.07936465 28.08160763 45.94763184 42.19619751 C46.48231307 43.48151084 47.01820118 44.7663228 47.55529785 46.05062866 C48.30610705 47.84734949 49.05162065 49.64628049 49.796875 51.4453125 C50.22323242 52.47156738 50.64958984 53.49782227 51.08886719 54.55517578 C52 57 52 57 52 59 C52.66 59 53.32 59 54 59 C54.16363037 58.4006665 54.32726074 57.80133301 54.49584961 57.18383789 C56.35208475 50.66842105 58.78109562 44.60668644 61.5625 38.4375 C65.90465704 28.6528374 69.9524728 18.77471651 73.86352539 8.81030273 C74.26047607 7.80298096 74.65742676 6.79565918 75.06640625 5.7578125 C75.41646729 4.8620752 75.76652832 3.96633789 76.12719727 3.04345703 C77 1 77 1 78 0 C79.92667507 -0.08748207 81.85651861 -0.10697334 83.78515625 -0.09765625 C84.95498047 -0.09443359 86.12480469 -0.09121094 87.33007812 -0.08789062 C88.56177734 -0.07951172 89.79347656 -0.07113281 91.0625 -0.0625 C92.91584961 -0.05573242 92.91584961 -0.05573242 94.80664062 -0.04882812 C97.87114117 -0.03699608 100.93554721 -0.02051173 104 0 C104.495 0.99 104.495 0.99 105 2 C104.15478516 4.46411133 104.15478516 4.46411133 102.7890625 7.58203125 C102.28503906 8.74412109 101.78101563 9.90621094 101.26171875 11.10351562 C100.71641414 12.33996212 100.17084179 13.57629056 99.625 14.8125 C98.59613103 17.17307984 97.56749196 19.53375989 96.5390625 21.89453125 C96.26555466 22.51968124 95.99204681 23.14483124 95.71025085 23.78892517 C90.11043681 36.58893819 84.63851192 49.44339951 79.24609375 62.33203125 C78.4459857 64.24154574 77.64585544 66.15105093 76.84570312 68.06054688 C75.6366773 70.94606234 74.42929328 73.83221169 73.22680664 76.72045898 C69.25063669 86.26471187 65.25382865 95.78427549 60.68359375 105.0625 C60.37505966 105.69690506 60.06652557 106.33131012 59.74864197 106.98493958 C55.03340374 116.32213253 47.74963475 122.38424142 38 126 C27.31072921 128.81201727 14.32069924 128.03238515 4.6171875 122.6875 C2.69960127 121.51155862 0.83654632 120.29789447 -1 119 C0.44323469 114.26210835 2.37226733 110.01141849 4.625 105.625 C4.94984375 104.98433594 5.2746875 104.34367187 5.609375 103.68359375 C6.40257407 102.12052499 7.20077031 100.55999378 8 99 C10.67562831 99.59522617 12.57195574 100.29181415 15.0625 101.5625 C19.89231938 103.66967822 24.83112459 103.70411925 30 103 C34.02115318 100.90564938 35.90307895 98.19964536 37.61767578 94.0012207 C38.37993724 90.0112736 36.24103276 86.83719916 34.4375 83.375 C33.5730927 81.59488277 32.71402709 79.81216506 31.859375 78.02734375 C31.39337891 77.06296387 30.92738281 76.09858398 30.44726562 75.10498047 C27.82054036 69.46957361 25.52622957 63.69688045 23.1875 57.9375 C18.68784008 46.92626577 13.98032921 36.02843892 9.09643555 25.18139648 C6.74730682 19.9602487 4.41745117 14.7308561 2.15234375 9.47265625 C1.53153931 8.03998413 1.53153931 8.03998413 0.89819336 6.57836914 C0 4 0 4 0 0 Z " fill="#000000" transform="translate(781,89)"/>
<path d="M0 0 C9.3777577 7.93610242 14.75814402 16.77408008 16.4296875 29.02734375 C16.76789542 34.3597553 16.77067644 39.69611282 16.4296875 45.02734375 C15.4296875 46.02734375 15.4296875 46.02734375 12.76585388 46.14759827 C10.9838131 46.14426735 10.9838131 46.14426735 9.16577148 46.14086914 C8.1853186 46.14108818 8.1853186 46.14108818 7.18505859 46.14131165 C5.01526622 46.14061258 2.84555871 46.13282053 0.67578125 46.125 C-0.82494561 46.1231358 -2.32567307 46.12171191 -3.82640076 46.12071228 C-7.78349476 46.11688727 -11.74055228 46.10705715 -15.69763184 46.0960083 C-19.73266099 46.08579381 -23.76769603 46.08121458 -27.80273438 46.07617188 C-35.72527719 46.06543486 -43.64779031 46.04835865 -51.5703125 46.02734375 C-50.94718241 47.32539442 -50.31811408 48.62059564 -49.68652344 49.91455078 C-49.33684509 50.63611359 -48.98716675 51.35767639 -48.62689209 52.10110474 C-46.28472418 56.37108614 -41.96714143 58.14014545 -37.5546875 59.7734375 C-28.87997324 62.24948783 -20.93694647 61.10237002 -12.5703125 58.02734375 C-10.69886495 56.95619884 -10.69886495 56.95619884 -9.1328125 55.77734375 C-6.5703125 54.02734375 -6.5703125 54.02734375 -4.60083008 54.25878906 C-1.1616495 55.56052532 1.18355072 58.22781244 3.7421875 60.77734375 C4.30486328 61.30328125 4.86753906 61.82921875 5.44726562 62.37109375 C9.40243074 66.28268912 9.40243074 66.28268912 9.52734375 69.6953125 C6.61227005 75.88854738 -0.17310928 79.11171924 -6.3203125 81.40234375 C-22.45707069 86.82844665 -41.47132123 85.67451501 -56.80078125 78.51953125 C-68.09988112 72.48398722 -74.99929068 63.93646188 -79.31640625 51.95703125 C-82.80058086 39.31788748 -81.31587901 24.98511339 -75.21484375 13.46875 C-68.32149127 2.50961322 -58.40028521 -5.24776382 -45.8828125 -8.91015625 C-29.59829697 -12.35084785 -13.37734056 -10.26680392 0 0 Z M-48.5703125 18.02734375 C-51.18188287 21.71629464 -52.5703125 24.37788941 -52.5703125 29.02734375 C-38.3803125 29.02734375 -24.1903125 29.02734375 -9.5703125 29.02734375 C-11.72702412 21.47885309 -13.50802408 18.24900398 -19.7578125 13.71484375 C-28.96744139 8.97048947 -41.34832684 10.3805354 -48.5703125 18.02734375 Z " fill="#000000" transform="translate(1058.5703125,97.97265625)"/>
<path d="M0 0 C6.95693643 6.22110662 10.45938638 13.87083193 12 23 C12.08468938 25.05434881 12.1177823 27.11114703 12.11352539 29.16723633 C12.11341209 30.99856865 12.11341209 30.99856865 12.11329651 32.86689758 C12.10813522 34.17539169 12.10297394 35.4838858 12.09765625 36.83203125 C12.09578961 38.19251961 12.09436687 39.55300865 12.09336853 40.91349792 C12.08956275 44.48255287 12.07974914 48.05156669 12.06866455 51.62060547 C12.05840863 55.26724695 12.05386197 58.91389511 12.04882812 62.56054688 C12.03812503 69.70704962 12.02054404 76.85351778 12 84 C3.42 84 -5.16 84 -14 84 C-14 81.36 -14 78.72 -14 76 C-14.64066406 76.48210937 -15.28132812 76.96421875 -15.94140625 77.4609375 C-16.80636719 78.09257812 -17.67132812 78.72421875 -18.5625 79.375 C-19.40941406 80.00148438 -20.25632812 80.62796875 -21.12890625 81.2734375 C-27.27231861 84.9678433 -33.33834303 85.36117793 -40.3125 85.3125 C-41.15337158 85.30686035 -41.99424316 85.3012207 -42.8605957 85.29541016 C-53.89784244 85.07960105 -61.56456474 82.33488159 -69.5 74.5234375 C-74.84808786 68.57050637 -76.58795092 62.61039632 -76.3515625 54.77734375 C-75.46932755 47.80768764 -72.04413308 41.82482294 -67 37 C-55.70605775 29.75255043 -43.84501938 29.71711965 -30.875 29.875 C-29.42708956 29.88505493 -27.97917232 29.89417632 -26.53125 29.90234375 C-23.02068963 29.92414656 -19.51038972 29.95853619 -16 30 C-16.41528988 28.39334492 -16.84847049 26.79130778 -17.2890625 25.19140625 C-17.52834473 24.29881104 -17.76762695 23.40621582 -18.01416016 22.48657227 C-19.39616966 19.00074591 -21.22736208 17.52813417 -24.5078125 15.83984375 C-34.4346712 12.49458572 -44.99840185 13.68827845 -54.38671875 18.12890625 C-55.08410156 18.49886719 -55.78148437 18.86882812 -56.5 19.25 C-60 21 -60 21 -62.08056641 20.82543945 C-65.68771679 19.27420879 -66.73623113 15.56857008 -68.375 12.1875 C-68.75527344 11.46240234 -69.13554688 10.73730469 -69.52734375 9.99023438 C-69.87667969 9.28576172 -70.22601562 8.58128906 -70.5859375 7.85546875 C-70.9061084 7.21246826 -71.2262793 6.56946777 -71.55615234 5.90698242 C-72 4 -72 4 -71.24536133 1.85888672 C-67.19087927 -4.19302984 -56.58340542 -6.33811233 -49.875 -7.875 C-33.06544174 -10.79236135 -14.03245772 -10.89491876 0 0 Z M-46 50 C-48.50031654 53.75047482 -48.53603554 55.55856266 -48 60 C-45.45862841 63.15954305 -43.85377341 64.71540886 -40 66 C-32.87356764 66.53572831 -26.47443689 66.13204082 -20.25 62.3125 C-16.66189592 58.62472636 -15.04424352 54.92342893 -14.92578125 49.7734375 C-14.95027344 48.85820312 -14.97476563 47.94296875 -15 47 C-19.04152915 46.91253072 -23.08281305 46.85945018 -27.125 46.8125 C-28.26710938 46.78736328 -29.40921875 46.76222656 -30.5859375 46.73632812 C-38.74625499 46.5756462 -38.74625499 46.5756462 -46 50 Z " fill="#000000" transform="translate(708,97)"/>
<path d="M0 0 C26.07 0 52.14 0 79 0 C80.45386995 2.9077399 80.2475858 5.51112297 80.3125 8.75 C80.36857422 10.56757812 80.36857422 10.56757812 80.42578125 12.421875 C79.5985986 19.37324476 74.29823917 24.12532238 69.8125 29.1875 C65.96910607 33.57016746 62.16451175 37.96525169 58.5 42.5 C54.35828738 47.62163723 50.05050394 52.58662807 45.69140625 57.5234375 C41.86677466 61.88768295 38.50687819 66.32416241 35 71 C50.18 71 65.36 71 81 71 C81 77.93 81 84.86 81 92 C53.61 92 26.22 92 -2 92 C-2 74.02298851 -2 74.02298851 5 67 C6.54740869 65.24866513 8.06513649 63.47382461 9.58349609 61.69726562 C11.2660743 59.7312176 12.9648978 57.78034054 14.66796875 55.83203125 C18.11454154 51.87881325 21.50527875 47.8806879 24.88330078 43.86889648 C27.34508238 40.9480698 29.82113109 38.04073738 32.31640625 35.1484375 C32.86804443 34.50849854 33.41968262 33.86855957 33.98803711 33.20922852 C35.05872825 31.96863202 36.13109065 30.72947543 37.20532227 29.49194336 C39.88460701 26.4419497 39.88460701 26.4419497 42 23 C28.14 22.67 14.28 22.34 0 22 C0 14.74 0 7.48 0 0 Z " fill="#000000" transform="translate(889,89)"/>
<path d="M0 0 C8.91 0 17.82 0 27 0 C28.64736126 1.64736126 28.12604563 3.55155292 28.12698364 5.82104492 C28.12980347 6.86432953 28.13262329 7.90761414 28.13552856 8.98251343 C28.13350433 10.13683868 28.1314801 11.29116394 28.12939453 12.48046875 C28.13114685 13.68845123 28.13289917 14.89643372 28.13470459 16.14102173 C28.13836278 19.46325954 28.13748968 22.78543543 28.1343255 26.10766983 C28.13180152 29.57723324 28.13413955 33.04679392 28.13571167 36.51635742 C28.13753325 42.34391762 28.13512735 48.17146516 28.13037109 53.99902344 C28.12492849 60.74561292 28.12669116 67.49217219 28.1321975 74.23876095 C28.13672895 80.02134174 28.13737902 85.80391341 28.13475883 91.5864954 C28.13319623 95.04451556 28.13300182 98.50252151 28.13629532 101.96054077 C28.13970839 105.81354964 28.13498377 109.66652439 28.12939453 113.51953125 C28.13141876 114.67385651 28.13344299 115.82818176 28.13552856 117.01748657 C28.13129883 118.58241348 28.13129883 118.58241348 28.12698364 120.17895508 C28.12660662 121.09115311 28.12622959 122.00335114 28.12584114 122.94319153 C28 125 28 125 27 126 C18.09 126 9.18 126 0 126 C0 84.42 0 42.84 0 0 Z " fill="#000000" transform="translate(743,55)"/>
<path d="M0 0 C0 8.25 0 16.5 0 25 C-3.3060541 25.82651352 -6.0129855 26.17723444 -9.375 26.375 C-13.89459631 26.74861996 -17.06303642 27.63782185 -21 30 C-21.99 30.33 -22.98 30.66 -24 31 C-25.15606182 32.8247174 -25.15606182 32.8247174 -26 35 C-26.27507889 35.64404282 -26.55015778 36.28808563 -26.83357239 36.9516449 C-29.12434254 43.2060996 -29.47045727 48.9766027 -29.51171875 55.59765625 C-29.52966995 56.67252792 -29.54762115 57.7473996 -29.56611633 58.85484314 C-29.61990532 62.2573566 -29.65401436 65.65973232 -29.6875 69.0625 C-29.72070076 71.3821805 -29.75519294 73.70184289 -29.79101562 76.02148438 C-29.87802293 81.68100598 -29.93836187 87.33991898 -30 93 C-39.24 93 -48.48 93 -58 93 C-58 62.64 -58 32.28 -58 1 C-49.42 1 -40.84 1 -32 1 C-29.95301586 3.04698414 -30.29954307 7.30411241 -30 10 C-29.5875 9.60167969 -29.175 9.20335938 -28.75 8.79296875 C-24.45850123 4.8559018 -20.59011324 2.60058798 -15 1 C-14.21625 0.773125 -13.4325 0.54625 -12.625 0.3125 C-8.44489439 -0.18513162 -4.20962233 0 0 0 Z " fill="#000000" transform="translate(506,88)"/>
</svg>
